<svg xmlns="http://www.w3.org/2000/svg" width="1400" height="850" viewBox="0 0 1400 850">
  <rect width="1400" height="850" fill="#f7f8fb"/>
  <text x="700" y="60" text-anchor="middle" font-family="Arial" font-size="34" font-weight="700" fill="#1d2433">Juniper PyEZ and Ansible Automation</text>
  <text x="700" y="95" text-anchor="middle" font-family="Arial" font-size="18" fill="#526071">NETCONF operations, guarded configuration workflows, and Jinja-generated ISIS</text>
  <rect x="100" y="155" width="430" height="560" rx="18" fill="#ffffff" stroke="#d7dce5" stroke-width="2"/>
  <text x="315" y="200" text-anchor="middle" font-family="Arial" font-size="24" font-weight="700" fill="#1d2433">Junos Lab Fabric</text>
  <rect x="170" y="285" width="120" height="65" rx="12" fill="#e8f3ff" stroke="#4a90d9" stroke-width="2"/>
  <text x="230" y="325" text-anchor="middle" font-family="Arial" font-size="18" font-weight="700" fill="#15395b">core-a</text>
  <rect x="340" y="285" width="120" height="65" rx="12" fill="#e8f3ff" stroke="#4a90d9" stroke-width="2"/>
  <text x="400" y="325" text-anchor="middle" font-family="Arial" font-size="18" font-weight="700" fill="#15395b">core-b</text>
  <rect x="170" y="525" width="120" height="65" rx="12" fill="#ebf8ef" stroke="#46a35c" stroke-width="2"/>
  <text x="230" y="565" text-anchor="middle" font-family="Arial" font-size="18" font-weight="700" fill="#245a31">edge-a</text>
  <rect x="340" y="525" width="120" height="65" rx="12" fill="#ebf8ef" stroke="#46a35c" stroke-width="2"/>
  <text x="400" y="565" text-anchor="middle" font-family="Arial" font-size="18" font-weight="700" fill="#245a31">edge-b</text>
  <line x1="290" y1="318" x2="340" y2="318" stroke="#526071" stroke-width="4"/>
  <line x1="230" y1="350" x2="230" y2="525" stroke="#526071" stroke-width="4"/>
  <line x1="400" y1="350" x2="400" y2="525" stroke="#526071" stroke-width="4"/>
  <line x1="290" y1="558" x2="340" y2="558" stroke="#526071" stroke-width="4"/>
  <text x="315" y="635" text-anchor="middle" font-family="Arial" font-size="15" fill="#526071">ISIS interfaces rendered from vars/isis_interfaces.yml</text>
  <rect x="620" y="175" width="300" height="130" rx="14" fill="#ffffff" stroke="#b9c3d2" stroke-width="2"/>
  <text x="770" y="218" text-anchor="middle" font-family="Arial" font-size="22" font-weight="700" fill="#1d2433">PyEZ Scripts</text>
  <text x="770" y="252" text-anchor="middle" font-family="Arial" font-size="15" fill="#526071">BGP checks, facts, config diff</text>
  <text x="770" y="276" text-anchor="middle" font-family="Arial" font-size="15" fill="#526071">commit confirmed and rollback</text>
  <rect x="620" y="390" width="300" height="150" rx="14" fill="#ffffff" stroke="#b9c3d2" stroke-width="2"/>
  <text x="770" y="432" text-anchor="middle" font-family="Arial" font-size="22" font-weight="700" fill="#1d2433">Ansible + Jinja</text>
  <text x="770" y="466" text-anchor="middle" font-family="Arial" font-size="15" fill="#526071">facts and command playbooks</text>
  <text x="770" y="490" text-anchor="middle" font-family="Arial" font-size="15" fill="#526071">ISIS config rendering</text>
  <text x="770" y="514" text-anchor="middle" font-family="Arial" font-size="15" fill="#526071">optional commit-confirm deploy</text>
  <rect x="1010" y="285" width="300" height="170" rx="16" fill="#ffffff" stroke="#b9c3d2" stroke-width="2"/>
  <text x="1160" y="328" text-anchor="middle" font-family="Arial" font-size="22" font-weight="700" fill="#1d2433">Safety Pattern</text>
  <text x="1160" y="362" text-anchor="middle" font-family="Arial" font-size="15" fill="#526071">No committed passwords</text>
  <text x="1160" y="388" text-anchor="middle" font-family="Arial" font-size="15" fill="#526071">Dry-run by default</text>
  <text x="1160" y="414" text-anchor="middle" font-family="Arial" font-size="15" fill="#526071">Explicit commit flags</text>
</svg>
